<svg width="512" height="512" viewBox="0 0 512 512" fill="none" xmlns="http://www.w3.org/2000/svg">
<rect width="512" height="512" fill="white"/>
<path d="M149.198 250.863C149.198 250.863 145.91 252.278 145.91 252.278L147.338 248.729L148.659 242.996L141.15 241.256L135.617 235.294L133.478 226.834L135.43 219.491L141.36 214.067L149.63 212.051L155.21 213.677L158.132 213.325L156.328 215.787L149.532 216.363L143.912 219.086L141.307 223.557L141.243 229.148L144.207 232.796L147.289 232.591L155.981 219.84L161.46 217.996L167.631 220.128L169.773 217.717L173.255 215.739L178.109 216.438L187.475 224.271L190.337 224.268L192.042 220.726L190.759 215.089L186.844 211.24L182.25 210.583L178.871 211.852L174.443 212.325L173.564 211.055L176.907 208.946L179.527 206.922L183.907 205.784L190.924 207.116L196.726 212.664L199.033 221.651L196.462 229.799L191.416 233.67L191.969 235.805L193.557 235.708L193.189 237.282L189.589 238.099L182.019 236.299L183.821 240.336L187.252 239.69L188.944 243.077L186.274 247.765L188.548 249.639L186.602 252.307L186.876 255.759L182.366 258.075L184.242 261.642L178.095 269.73L171.809 264.311L168.085 264.684L168.417 260.702L163.869 259.554L163.405 256.683L159.964 254.329L156.174 246.78L149.198 250.863L149.198 250.863Z" fill="white"/>
<path d="M151.697 249.807C151.262 249.92 150.726 250.227 150.472 250.994C150.265 251.621 149.546 251.85 149.181 251.8C148.573 251.718 147.817 251.723 147.204 252.365C146.591 253.007 145.753 252.767 145.713 251.814C145.672 250.862 145.849 249.974 146.636 249.296C148.352 247.817 146.867 247.291 147.713 245.971C148.562 244.649 148.263 244.349 147.94 242.831C144.257 242.963 142.031 242.305 139.227 239.879C136.423 237.452 135.102 235.269 134.194 231.736C133.286 228.203 133.053 225.846 134.028 222.588C135.003 219.33 136.349 217.597 138.869 215.587C141.389 213.578 144.065 212.706 146.608 212.272C149.151 211.838 150.875 211.707 152.463 212.261C154.05 212.815 155.555 213.604 156.392 213.454C157.229 213.305 157.756 212.977 158.103 212.587C158.734 215.34 156.302 216.047 154.097 216.523C151.891 216.998 150.356 216.331 148.379 217.059C146.403 217.787 143.237 219.352 142.146 222.513C141.056 225.675 141.19 226.695 141.776 229.063C142.362 231.432 144.744 232.833 145.902 232.635C147.06 232.437 147.255 232.052 148.14 231.198C149.026 230.343 152.974 222.937 154.463 221.16C155.951 219.383 157.605 218.61 159.476 218.234C161.348 217.857 161.839 217.831 163.47 218.171C165.101 218.511 166.247 219.486 167.599 219.96C168.153 219.473 168.436 218.848 168.929 218.319C170.692 216.427 171.678 215.821 174.155 215.601C175.579 215.475 177.492 215.948 178.717 216.671C180.899 217.959 182.876 219.951 184.452 221.45C185.68 222.618 187.13 224.019 188.86 224.216C190.749 224.432 191.654 221.849 191.608 220.52C191.582 219.766 191.607 219.097 191.457 218.291C191.306 217.485 191.04 216.522 190.651 215.726C190.263 214.929 189.71 214.168 189.152 213.555C188.244 212.558 186.883 211.592 185.583 211.208C184.854 210.993 183.172 210.668 182.182 210.832C180.968 211.033 180.125 211.615 179.022 211.902C177.687 212.25 175.328 213.011 174.07 212.158C173.269 211.615 173.1 211.184 172.82 210.332C173.165 210.524 173.613 210.608 173.99 210.57C174.85 210.482 175.512 209.636 176.12 209.104C176.62 208.665 177.306 207.921 177.989 207.481C179.744 206.352 182.083 205.934 184.128 205.763C185.767 205.626 187.988 205.955 189.549 206.493C191.118 207.034 192.74 208.138 193.982 209.234C195.544 210.612 196.493 211.868 197.328 213.797C198.395 216.26 199.284 220.094 199.057 222.763C198.878 224.866 197.614 228.283 196.328 230.084C195.06 231.86 193.409 232.913 191.451 233.687C191.608 234.085 191.694 234.468 191.863 234.787C192.103 235.239 192.489 235.722 193.044 235.442C193.265 235.33 193.38 235.248 193.739 235.462C194.099 235.676 194.136 236.756 193.357 237.391C192.962 237.713 192.508 237.852 191.806 237.999C191.104 238.146 190.004 238.356 189.214 238.365C188.424 238.374 187.852 237.848 186.987 237.912C185.65 238.011 184.468 237.247 183.29 236.763C182.798 236.561 182.65 236.586 182.37 236.49C182.586 236.885 182.85 237.287 183.017 237.675C183.184 238.062 183.215 238.444 183.325 238.758C183.434 239.073 183.57 239.307 183.671 239.56C183.917 239.709 184.038 239.984 184.407 240.008C184.777 240.032 185.302 239.788 185.654 239.671C186.005 239.554 186.21 239.311 186.503 239.312C186.796 239.312 187.103 239.466 187.376 239.613C187.649 239.759 187.859 239.749 188.141 240.19C188.422 240.632 188.783 241.577 188.932 242.225C189.082 242.874 189.12 243.478 189.025 244.033C188.931 244.588 188.805 244.849 188.381 245.461C187.957 246.073 187.251 246.987 186.504 247.671C186.703 247.874 186.812 248.074 187.103 248.28C187.393 248.487 187.953 248.674 188.229 248.898C188.504 249.122 188.654 249.291 188.713 249.589C188.773 249.887 188.832 250.278 188.652 250.648C188.206 251.571 187.525 251.85 186.735 252.393C187.051 253.277 187.292 253.906 187.254 254.855C187.239 255.242 187.207 256.119 186.794 256.42C186.38 256.721 185.485 256.782 184.947 256.975C184.41 257.168 184.115 257.31 183.699 257.478C183.509 257.91 183.197 258.406 183.128 258.774C183.058 259.142 183.122 259.257 183.3 259.586C183.479 259.915 183.958 260.352 184.144 260.742C184.33 261.131 184.434 261.568 184.41 261.998C184.386 262.429 184.268 262.759 183.989 263.19C183.71 263.62 183.08 264.036 182.795 264.396C182.51 264.756 182.178 264.855 182.363 265.327C182.617 265.976 183.798 266.883 184.552 267.01C185.005 267.086 185.563 266.93 186.035 266.615C186.109 267.196 185.688 267.676 185.438 268.118C186.263 267.702 187.019 267.061 187.485 266.313C187.407 266.901 186.95 267.909 186.163 268.866C185.375 269.823 185.351 269.662 184.945 270.061C185.825 270.073 186.604 269.878 187.238 269.635C186.916 269.903 186.379 270.295 185.613 270.525C184.847 270.755 184.354 270.787 183.617 270.747C182.88 270.708 182.116 270.184 181.178 269.9C181.322 270.203 181.453 270.575 181.874 270.836C182.295 271.096 182.869 271.161 183.5 271.336C182.749 271.39 181.972 271.51 181.22 271.486C180.663 271.468 180.28 271.409 179.852 271.288C179.424 271.166 179.068 270.938 178.677 270.764C178.903 271.052 179.023 271.418 179.355 271.628C179.687 271.839 180.165 271.85 180.57 271.961C180.181 272.026 179.825 272.18 179.404 272.154C178.983 272.128 178.576 272.039 178.1 271.808C177.624 271.576 177.121 271.276 176.691 270.953C176.262 270.63 175.727 270.206 175.526 269.872C175.325 269.537 175.491 269.245 175.473 268.932C175.258 269.141 174.972 269.288 174.828 269.56C174.683 269.832 174.556 270.079 174.717 270.475C174.879 270.871 175.351 271.304 175.704 271.712C174.784 271.206 174.292 271.037 173.954 270.281C173.637 269.574 173.969 268.815 174.212 268.189C174.333 267.878 174.544 267.57 174.655 267.271C174.229 266.985 173.76 266.757 173.376 266.411C172.991 266.065 172.759 265.542 172.372 265.214C171.984 264.887 171.514 264.721 171.086 264.475C171.543 265.116 172.237 265.876 172.455 266.397C172.673 266.918 172.49 267.296 172.354 267.625C172.218 267.954 171.921 268.077 171.663 268.313C171.404 268.548 170.922 268.491 170.798 268.792C170.673 269.092 170.702 269.503 170.919 269.736L171.807 270.695C171.531 270.614 171.027 270.323 170.782 270.095C170.536 269.868 170.19 269.68 170.082 269.331C169.973 268.981 169.895 268.675 170.065 268.313C170.235 267.952 170.844 267.727 171.08 267.429C171.315 267.132 171.443 266.943 171.367 266.629C171.292 266.316 170.943 266.148 170.642 265.998C169.723 265.542 168.585 265.176 167.764 264.571C167.3 264.23 167.051 263.931 166.92 263.66C166.789 263.389 166.829 263.15 166.955 262.763C167.08 262.376 167.65 261.783 167.658 261.386C167.666 260.989 167.318 260.97 166.993 260.892C166.668 260.814 166.137 261.124 165.815 260.943C165.492 260.761 165.76 260.201 165.395 259.99C165.031 259.779 164.343 260.065 163.918 259.845C163.493 259.624 163.272 259.292 163.065 258.895C162.859 258.498 162.757 258.04 162.786 257.718C162.815 257.397 163.065 257.295 163.192 257.107C163.319 256.92 163.43 256.763 163.177 256.567C162.924 256.37 162.286 256.748 161.836 256.519C161.386 256.291 161.49 255.521 161.155 255.268C160.819 255.015 160.343 255.228 160.061 255.18C159.779 255.132 159.741 255.496 159.477 254.982C159.213 254.468 158.903 252.845 158.572 252.28C158.24 251.715 157.92 252.361 157.609 251.796C157.297 251.231 157.304 250.233 157.043 249.34L156.173 246.942C154.942 248.162 154.068 248.637 152.603 249.192C153.18 252.951 153.246 255.216 155.284 259.124C157.323 263.031 160.329 264.993 164.426 267.855C159.248 265.287 156.56 262.912 154.534 259.604C152.508 256.294 152.207 253.265 151.697 249.807ZM175.505 243.77C175.857 243.721 176.297 243.73 176.572 243.844C176.848 243.958 177.132 244.04 177.398 244.226C178.06 244.691 178.605 245.299 178.937 246.053C179.149 246.534 179.288 247.176 179.442 247.758C179.171 247.244 178.951 246.696 178.62 246.252C178.098 245.552 177.315 244.92 176.454 244.724C176.17 244.659 175.999 244.713 175.858 244.76C175.944 244.857 176.069 244.929 176.104 245.088C176.139 245.247 176.162 245.567 175.918 245.75C175.523 246.044 175.012 245.985 174.62 245.75C174.225 245.512 174.014 245.024 174.108 244.553C174.221 243.992 175.025 243.839 175.505 243.77ZM170.992 243.851C170.867 242.946 171.046 242.129 171.761 241.539C172.131 241.234 172.711 240.82 173.283 240.641C173.831 240.469 175.205 240.26 176.098 240.483C176.783 240.654 177.297 241.025 177.913 241.251C178.529 241.476 178.964 241.623 179.561 241.894C180.477 242.31 181.069 242.846 181.701 243.115C182.004 243.245 182.379 243.147 182.758 243.189C182.495 243.325 182.148 243.486 181.83 243.445C181.432 243.395 180.843 243.149 180.506 242.956C179.91 242.616 179.604 242.453 178.982 242.229C178.61 242.095 178.015 241.967 177.602 241.795C177.189 241.623 176.45 241.213 176.063 241.1C175.571 240.957 174.738 240.982 174.24 241.091C173.555 241.241 172.578 241.544 172.137 242.132C171.698 242.716 171.577 243.18 171.815 243.787C171.971 243.518 172.049 243.202 172.217 242.992C172.564 242.558 173.036 242.451 173.564 242.422C174.157 242.389 174.512 242.671 174.808 243.189C174.661 243.118 174.385 242.953 174.186 242.923C173.719 242.853 173.396 242.963 173.027 243.262C172.592 243.615 172.797 243.978 172.808 244.423C172.814 244.628 172.769 244.802 172.75 244.992C172.558 244.978 172.375 244.933 172.211 244.821C172.255 245.022 172.259 245.203 172.343 245.422C172.426 245.641 172.586 245.89 172.708 246.123C172.306 245.847 171.901 245.595 171.6 245.197C171.299 244.798 171.06 244.338 170.992 243.851ZM170.347 237.212C170.526 236.793 170.491 236.208 170.557 235.715C170.607 236.314 170.846 236.939 170.642 237.418C170.437 237.898 169.923 237.917 169.531 238.119C169.807 237.811 170.168 237.631 170.347 237.212ZM166.029 247.05C166.3 246.729 167.202 246.775 167.855 246.701C167.414 246.907 166.973 247.114 166.532 247.321C166.519 247.488 166.573 247.667 166.492 247.822C166.412 247.978 166.22 248.066 166.084 248.187C166.021 247.767 165.759 247.371 166.029 247.05ZM167.166 228.091C167.591 228.228 168.131 228.412 168.473 228.356C168.815 228.301 168.86 228.052 169.035 227.88C169.544 228.854 170.119 229.922 170.832 230.76C171.13 231.11 171.239 230.901 171.484 231.264C171.729 231.626 171.956 232.416 172.213 232.89C172.47 233.364 172.751 233.695 173.02 234.098C172.419 233.511 171.644 232.764 171.274 232.251C170.904 231.738 171.064 231.657 170.75 231.161C170.435 230.666 169.846 229.911 169.394 229.287C169.169 229.361 168.891 229.457 168.705 229.436C168.519 229.414 168.518 229.219 168.337 229.128C168.155 229.036 167.897 229.133 167.638 228.981C167.379 228.829 167.253 228.44 167.166 228.091ZM166.054 233.583C166.41 233.483 166.878 233.496 167.214 233.413C167.55 233.329 167.775 233.195 168.056 233.086C167.905 232.582 167.778 231.626 167.242 231.371C166.895 231.206 165.675 231.609 165.354 231.745C164.632 232.05 163.841 232.667 163.167 233.087C163.772 232.465 164.289 231.897 165.077 231.486C165.552 231.239 166.688 230.82 167.233 230.864C167.482 230.883 167.549 230.973 167.73 231.148C168.355 231.75 168.467 232.351 168.747 233.136C168.91 233.31 169.069 233.417 169.21 233.601C169.35 233.786 169.468 234.096 169.546 234.353C169.381 234.189 169.416 233.937 169.031 233.864C168.647 233.791 168.123 234.025 167.65 234.167C168.05 234.357 168.271 234.57 168.386 235.108C168.521 235.74 168.074 236.297 167.525 236.446C166.763 236.652 166.332 236.556 165.894 235.949C165.702 235.683 165.735 235.313 165.67 235.031C164.753 235.271 164.763 235.238 164.191 235.936C164.663 236.411 164.954 236.681 165.626 236.892C166.002 237.011 166.423 237.116 166.861 237.108C167.298 237.101 168.007 237.041 168.44 236.888C168.872 236.735 169.1 236.559 169.373 236.19C169.645 235.82 169.593 235.373 169.656 235.001C169.69 235.341 169.732 235.776 169.654 236.042C169.418 236.852 168.809 237.194 168.033 237.342C167.289 237.485 166.335 237.485 165.587 237.326C164.99 237.199 163.948 236.717 163.623 236.189C163.401 235.828 163.429 235.329 163.332 234.898C164.002 234.24 164.216 234.331 165.095 234.009C165.463 233.875 165.697 233.684 166.054 233.583ZM160.929 230.943C160.893 230.632 160.928 230.632 160.927 230.476C160.193 230.419 159.999 230.929 159.749 231.854C159.655 232.2 159.843 232.361 159.717 232.601C159.592 232.841 159.322 232.861 159.093 233.112C158.864 233.363 158.672 233.797 158.462 234.052C158.03 234.574 157.387 234.965 156.847 235.364C157.196 234.986 157.897 234.38 158.069 233.895C158.16 233.637 158.058 233.203 158.229 232.955C158.399 232.706 158.446 232.548 158.707 232.443C158.968 232.339 158.8 232.043 158.84 231.774C158.88 231.506 159.021 231.295 159.159 231.008C159.297 230.721 159.46 230.3 159.8 230.094C160.14 229.887 160.74 229.928 161.002 229.797C161.264 229.666 161.067 229.493 161.245 229.333C161.424 229.173 161.826 229.153 162.071 228.972C162.504 228.651 162.66 228.222 162.869 227.755C163.079 228.636 163.189 229.279 163.029 230.175C162.849 231.184 162.591 231.807 161.687 232.577C161.375 232.842 161.04 232.977 160.77 233.136C160.895 232.872 161.118 232.726 161.146 232.345C161.173 231.963 160.966 231.256 160.929 230.943ZM178.117 232.198C177.641 232.321 177.515 232.278 177.18 232.625C177.451 232.913 177.722 233.202 177.993 233.49C177.852 232.847 177.891 232.705 178.117 232.198ZM176.765 231.966C177.379 231.553 177.917 231.212 178.635 231.03C178.923 230.956 179.384 230.917 179.68 230.875C179.861 230.456 180.125 230.103 180.162 229.657C180.186 229.361 179.902 228.063 179.702 227.749C179.116 226.838 178.72 226.87 178.064 226.408C177.588 226.074 177.455 225.453 177.204 224.776C177.111 224.527 176.925 224.226 176.817 223.972C176.075 223.985 175.295 224.09 174.476 224.288C174.804 223.825 175.124 223.398 175.13 222.795C175.135 222.191 174.907 221.494 174.481 221.034C174.055 220.574 173.445 220.219 172.884 219.884C172.322 219.55 171.566 219.329 171.045 219.067C171.598 218.742 172.144 218.313 172.704 218.09C174.162 217.51 175.551 217.717 177.179 218.331C178.125 218.688 178.92 219.048 179.983 219.816C181.047 220.585 182.47 222.095 183.521 222.951C184.571 223.807 185.416 224.482 186.28 224.948C187.144 225.414 187.855 225.459 188.642 225.715L189.978 226.696L190.667 225.404L192.147 225.296L192.138 223.602L193.398 222.984L192.766 220.817L193.593 219.953L192.616 218.715L193.063 217.076L191.789 215.539L191.844 213.818L190.565 213.079L190.09 211.35L188.442 211.049L187.538 209.637L185.806 209.943L184.745 208.969L183.597 209.27L182.273 209.372L181.437 208.964L180.507 209.876L179.092 209.442L176.716 210.903L178.11 209.127L179.786 208.523L181.047 207.934L182.947 208.189L184.446 207.491L186.135 208.109L187.724 207.717L188.782 208.995L190.417 208.88L191.581 210.303L192.691 210.667L193.341 212.649L194.398 213.336L194.339 215.188L195.648 216.336L194.93 217.965L196.158 218.668L195.032 220.13L196.673 221.31L195.12 222.159L196.488 223.498L195.18 223.988L196.386 225.516L194.859 225.783L195.865 226.908L194.156 227.02L194.9 228.772L193.426 227.891L193.411 230.187L192.24 228.761L192.141 230.833L190.79 229.573L191.211 231.647L189.67 230.001C190.121 231.015 190.289 232.186 191.169 233.056C193.257 232.36 194.555 231.552 195.897 229.652C197.12 227.921 198.338 224.562 198.461 222.554C198.601 220.262 197.861 216.236 196.898 214.111C195.971 212.066 195.098 211.169 193.553 209.649C192.157 208.624 190.767 207.526 189.125 206.917C186.715 206.023 183.873 206.195 181.413 206.693C180.05 206.969 179.185 207.406 178.424 207.859C177.094 208.651 176.167 210.007 174.821 210.845C174.382 211.118 174.004 211.195 173.593 211.064C174.097 211.732 174.556 211.987 175.517 212.083C176.213 212.153 177.762 211.735 178.825 211.43C179.966 211.103 180.506 210.641 182.092 210.366C183.64 210.096 184.974 210.457 185.716 210.716C187.246 211.251 188.402 211.947 189.525 213.182C190.142 213.861 190.635 214.664 191.035 215.504C191.434 216.343 191.722 217.314 191.9 218.176C192.078 219.038 192.158 219.822 192.094 220.64C191.946 222.554 191.212 224.612 188.932 224.745C187.537 224.826 184.999 222.637 184.134 221.822C182.387 220.176 180.562 218.335 178.52 217.075C177.274 216.307 175.694 215.915 174.24 216.052C171.512 216.31 170.813 216.973 169.11 219.029C169.546 219.083 169.96 219.08 170.417 219.192C171.431 219.44 172.388 219.828 173.265 220.39C174.185 220.98 174.623 221.38 174.849 222.429C174.999 223.126 174.533 223.796 174.104 224.4C173.841 224.769 173.47 225.133 173.255 225.422C172.971 225.805 172.61 226.234 173.138 226.66C173.337 226.82 173.647 226.911 173.918 227.044C174.35 227.256 174.374 228.339 173.929 228.712C173.358 229.188 172.589 229.292 171.974 228.914C172.618 228.689 173.023 228.521 172.903 227.977C172.833 227.662 172.384 227.474 171.957 227.368C170.929 227.111 170.226 227.31 169.155 226.804C168.073 226.293 167.981 225.919 167.52 224.884C167.07 225.019 166.65 225.109 166.075 225.429C165.5 225.749 164.913 226.364 164.379 226.59C163.033 227.158 162.737 227.12 161.931 227.065C160.513 226.967 158.867 227.901 157.224 228.794C156.951 228.942 155.758 229.073 155.019 229.502C153.878 230.164 152.36 231.534 151.527 232.561C150.266 234.117 149.011 238.301 148.72 242.886C148.853 244.238 149.398 245.064 148.688 245.87C147.979 246.676 148.315 248.336 148.121 248.856C147.927 249.376 147.562 249.231 147.078 250.001C146.594 250.77 146.265 250.719 146.513 251.956C146.971 251.511 147.658 250.964 148.323 250.814C148.912 250.681 149.067 251.466 150.303 249.663C150.965 248.699 152.524 248.38 153.542 247.818C154.56 247.256 156.377 246.15 157.92 243.576C159.463 241.001 159.964 238.502 159.711 235.073C159.884 235.657 160.115 236.308 160.171 237.998C160.227 239.688 160.029 241.635 161.594 243.628L162.569 244.869C162.033 244.364 161.02 243.565 160.641 242.931L159.768 241.469C158.86 243.758 158.631 244.18 157.111 245.983C157.21 246.906 157.371 247.858 157.83 248.672C158.289 249.486 158.007 250.578 158.34 251.108C158.672 251.639 159.129 251.215 159.408 251.763C159.687 252.311 159.645 253.507 160.014 254.023C160.383 254.539 160.964 254.074 161.31 254.198C161.657 254.322 161.807 254.553 162.019 254.762C162.231 254.97 162.106 255.582 162.481 255.702C162.855 255.823 163.356 255.566 163.743 255.677C164.13 255.787 164.264 256.203 164.251 256.6C164.237 256.997 163.892 257.243 163.799 257.662C163.707 258.081 163.776 258.347 164.042 258.665C164.309 258.984 164.787 259.097 165.26 259.194C165.734 259.29 166.333 259.073 166.834 259.236C167.335 259.399 167.836 259.817 168.143 260.132C168.451 260.447 168.565 260.688 168.624 261.068C168.683 261.449 168.612 261.913 168.481 262.316C168.349 262.719 167.991 263.247 168.812 263.815C169.634 264.382 169.552 264.087 170.033 264.465C169.842 263.69 169.401 263.113 169.525 262.479C169.649 261.846 170.334 261.61 170.656 261.275C170.978 260.94 171.123 260.536 171.357 260.166C171.429 260.572 171.554 260.999 171.566 261.312C171.589 261.95 171.511 262.534 172.447 262.461C172.868 262.428 173.21 262.084 173.614 261.841C173.463 262.294 173.13 262.699 173.163 263.202C173.196 263.704 173.369 264.231 173.798 264.655C174.228 265.079 174.88 265.331 175.361 265.537C175.842 265.743 176.076 265.723 176.433 265.816C176.54 266.296 176.542 266.825 176.682 267.27C176.823 267.715 177.041 268.091 177.373 268.418C177.705 268.745 178.165 268.882 178.612 269.086C178.3 268.619 177.77 268.22 177.676 267.685C177.581 267.15 177.669 266.742 178.096 266.171C178.524 265.6 179.656 264.962 180.14 264.394C180.624 263.826 180.755 263.509 180.875 263.024C180.996 262.538 180.803 261.828 180.765 261.419C181.059 261.947 181.119 262.117 181.291 262.695C181.463 263.272 181.217 264.174 181.128 264.642C181.769 264.166 182.114 263.533 182.239 262.954C182.407 263.016 182.378 263.278 182.523 263.745C182.727 263.446 182.977 263.198 183.185 262.913C183.394 262.627 183.632 262.366 183.695 262.01C183.758 261.655 183.64 261.312 183.474 260.944C183.308 260.576 182.796 260.209 182.486 259.831C182.177 259.453 182.37 258.988 182.259 258.482C181.783 258.489 181.347 258.327 180.832 258.503C180.316 258.68 179.822 259.393 179.282 259.502C178.742 259.611 178.341 259.157 177.871 259.1C177.4 259.043 176.954 259.143 176.496 259.165C176.959 258.513 179.104 257.839 180.559 257.31C181.839 256.845 183.126 256.472 184.461 256.201C185.057 256.08 185.863 256.135 186.255 255.936C186.648 255.738 186.506 255.47 186.57 255.136C186.751 254.203 186.436 253.462 186.084 252.623C184.856 252.707 183.571 252.769 182.378 253.091C181.212 253.405 179.917 254.236 178.704 254.504C177.649 254.737 176.032 254.795 175.016 254.407C173.773 253.933 172.635 252.626 172.241 252.212C171.598 251.538 170.686 250.149 170.174 249.532C169.662 248.915 169.541 248.738 169.169 248.511C168.797 248.283 168.357 248.343 167.951 248.259C168.394 248.222 168.842 247.994 169.279 248.147C169.937 248.378 170.867 249.674 171.353 250.222C171.495 248.829 171.306 248.327 172.297 247.37C171.579 248.571 171.703 249.354 171.709 250.607C172.703 251.718 174.132 253.515 175.614 253.809C176.15 253.916 177.029 253.88 177.58 253.846C179.294 253.74 180.809 252.901 182.378 252.182C183.524 251.656 184.767 251.547 186.246 251.358C186.748 251.294 187.862 250.772 188.009 250.221C188.089 249.923 188.018 249.597 187.775 249.341C187.532 249.086 187.004 249.04 186.686 248.828C186.368 248.617 186.155 248.335 185.889 248.089C184.812 248.515 183.909 248.771 183.084 248.95C183.632 248.591 184.177 248.343 184.75 247.982C185.323 247.622 185.95 247.089 186.387 246.663C186.824 246.236 187.107 245.984 187.396 245.529C187.684 245.074 188.073 244.588 188.25 244.065C188.428 243.542 188.369 243.005 188.274 242.417C188.179 241.829 187.999 241.013 187.686 240.584C187.374 240.154 186.915 240.093 186.547 240.046C186.18 240 185.995 240.327 185.642 240.433C185.288 240.539 184.994 240.832 184.426 240.683C183.857 240.534 183.144 240.147 182.476 239.499C181.808 238.852 181.201 237.702 180.486 236.864C179.255 235.419 177.815 234.124 176.428 232.832C176.267 232.479 176.034 231.994 175.894 231.5C175.651 230.641 175.465 229.735 175.573 228.832C175.657 228.14 175.827 227.393 176.456 226.998C176.707 226.839 177.043 226.732 177.302 226.777C177.562 226.822 177.853 227.053 177.817 227.39C177.779 227.761 177.539 227.816 177.408 228.024C177.187 228.377 177.117 228.618 177.082 229.012C177.382 228.951 177.784 228.851 178.043 228.87C178.382 228.895 178.722 229.054 178.973 229.483C178.523 229.212 178.303 229.09 177.82 229.168C177.599 229.204 177.347 229.334 177.111 229.416C177.076 229.732 177.091 230.107 177.006 230.362C176.921 230.617 176.661 230.608 176.618 230.895C176.575 231.182 176.652 231.621 176.765 231.966ZM180.049 230.929C180.208 230.96 180.266 230.962 180.48 231.07C180.693 231.178 180.977 231.272 181.19 231.586C181.402 231.9 181.495 232.43 181.504 232.651C181.367 232.638 181.195 232.697 181.038 232.606C180.882 232.515 180.753 232.268 180.559 232.188C180.366 232.108 180.227 232.16 180.032 232.172C180.182 232.434 180.283 232.705 180.285 232.968C180.291 233.542 180.02 233.884 179.508 234.049C179.284 234.121 178.906 234.114 178.7 234.115C178.832 234.305 179.023 234.458 179.154 234.648C179.586 234.5 179.916 234.447 180.133 234.29C180.351 234.133 180.559 233.833 180.845 233.669C181.131 233.504 181.404 233.455 181.729 233.339C181.508 233.618 181.378 233.879 181.158 234.158C181.458 234.688 181.758 235.217 182.057 235.746C182.516 235.927 182.925 235.991 183.502 236.213C184.078 236.434 184.805 236.888 185.536 237.073C186.267 237.257 186.699 237.351 187.427 237.352C188.155 237.353 188.822 237.822 189.531 237.785C190.239 237.748 191.534 237.523 192.057 237.371C192.651 237.197 193.378 236.735 193.323 236.053C192.839 236.275 192.043 236.308 191.471 235.42C191.217 235.025 191.154 234.224 190.793 233.769C190.433 233.314 190.032 233.222 189.472 232.683C188.913 232.144 188.004 231.299 187.441 230.542C186.877 229.785 186.604 228.859 186.12 228.177C185.636 227.494 185.004 226.989 184.494 226.489C183.38 225.396 182.511 224.669 180.947 224.307C180.194 224.132 179.388 224.2 178.608 224.146C178.332 224.34 177.945 224.569 177.939 224.939C177.932 225.309 178.173 225.808 178.48 226.028C178.993 226.394 179.721 226.757 180.105 227.421C180.352 227.847 180.686 229.367 180.625 229.808C180.561 230.266 180.275 230.59 180.049 230.929ZM180.871 234.522C180.758 234.664 180.679 234.803 180.481 234.94C180.283 235.078 179.994 235.158 179.721 235.284C180.241 235.838 180.782 236.395 181.291 236.984C181.801 237.573 182.271 238.235 182.768 238.859C182.676 238.465 182.62 238.037 182.492 237.677C182.365 237.317 182.137 237.024 181.867 236.498C181.597 235.972 181.251 235.252 180.871 234.522ZM167.465 222.714C167.525 223.344 167.811 224.292 168.052 224.875C168.341 225.572 168.559 225.92 169.226 226.247C170.447 226.847 171.105 226.583 172.016 226.892C172.45 227.039 173.016 227.316 173.234 227.68C173.453 228.044 173.292 228.515 173.027 228.738C173.561 228.718 174.033 228.018 173.676 227.458C173.5 227.182 172.904 227.156 172.673 226.888C172.442 226.62 172.384 226.311 172.409 225.99C172.453 225.411 173.441 224.707 173.741 224.199C174.203 223.418 174.324 222.815 173.828 222.015C173.132 220.891 171.141 220.259 169.97 219.987C169.434 219.862 169.153 219.899 168.745 219.855C169.624 220.173 170.528 220.388 171.124 221.357C171.623 222.166 171.395 222.549 171.549 223.306C171.621 223.657 172.114 223.746 172.36 223.93C172.574 224.09 172.587 224.236 172.495 224.53C172.434 224.292 172.298 224.132 172.09 224.035C171.747 223.876 171.429 223.984 171.184 223.571C170.812 222.943 171.178 222.213 170.489 221.559C169.974 221.069 169.312 220.538 168.576 220.659C168.227 220.716 167.977 220.818 167.627 220.998L167.02 220.493L167.007 220.487C165.829 219.752 164.998 219.12 163.469 218.751C161.94 218.382 161.228 218.416 159.618 218.757C158.009 219.097 156.431 219.535 154.866 221.513C153.3 223.492 149.649 230.626 148.628 231.634C147.606 232.643 147.397 232.958 145.936 233.234C144.474 233.509 141.801 231.856 141.222 229.27C140.642 226.684 140.432 225.765 141.638 222.291C142.844 218.817 145.916 217.242 148.269 216.462C150.623 215.682 152.235 216.266 154.021 215.934C155.808 215.602 157.514 214.959 157.765 213.43C157.539 213.631 157.231 213.867 156.261 213.997C155.292 214.127 153.751 213.258 152.113 212.79C150.475 212.322 148.792 212.548 146.648 212.909C144.504 213.271 141.869 213.937 139.498 215.871C137.127 217.805 135.611 219.668 134.609 222.768C133.606 225.868 133.809 228.206 134.697 231.564C135.585 234.921 137.104 237.257 139.579 239.371C142.055 241.484 144.29 242.326 147.991 242.098L148.116 238.572L147.127 240.793L146.749 238.601L145.809 240.369L144.877 238.387L144.196 240.245L143.263 238.012L142.042 239.459L142.137 237.453L140.268 238.026L140.894 236.526L139.157 236.875L139.834 234.903L138.243 234.947L139.17 233.094L137.172 232.885L138.453 231.08L136.668 230.102L137.699 228.927L136.283 227.623L137.223 225.982L136.421 224.198L137.276 223.106L137.179 220.913L138.219 220.115L138.894 218.262L140.685 217.723L141.305 216.054L143.159 215.802L144.715 214.526L146.594 214.609L148.521 213.602L150.102 213.675L152.133 213.595L154.33 214.773L151.21 214.295L149.872 215.283L148.515 214.764L147.785 215.494L146.331 215.923L144.986 216.087L144.241 217.461L142.27 217.853L141.868 219.591L140.228 220.542L140.412 222.418L139.339 223.649L140.086 225.307L139.338 227.315L140.469 228.735L139.92 230.333L141.147 230.846L141.336 233.213L142.928 233.313L143.595 234.969L145.218 234.484L146.468 235.47L147.504 233.98C149.602 232.38 150.434 231.549 151.87 229.241C153.504 226.613 154.292 224.32 156.742 222.271C158.499 220.801 160.027 220.103 162.306 220.072C164.445 220.042 165.375 221.164 167.149 222.195C167.255 221.87 167.273 221.785 167.499 221.518C167.487 221.917 167.429 222.339 167.465 222.714Z" fill="#007A50"/>
<path d="M327.73 131.052C330.156 135.741 333.532 139.719 337.226 143.433C338.588 144.845 340.365 145.644 342.126 146.378C342.918 146.684 343.437 146.985 343.61 147.843C343.764 148.678 344.108 149.51 345.135 149.544C346.159 149.619 346.664 148.931 347.079 148.086C347.467 147.303 347.829 146.117 349.046 146.148C349.585 145.547 348.96 145.256 348.688 144.789C348.479 144.538 348.245 144.347 347.884 144.377C346.985 144.775 346.916 145.757 346.471 146.473C346.178 146.908 345.957 147.707 345.408 147.508C344.733 147.297 345.061 146.487 345.111 145.945C345.188 145.111 345.716 144.403 345.645 143.576C345.43 142.946 344.843 142.701 344.509 143.132C342.982 145.091 341.418 143.808 339.853 143.219C337.073 141.904 335.28 139.463 333.479 137.106C332.091 135.292 330.774 133.38 329.724 131.325C329.274 130.504 328.779 129.721 328.128 129.029C327.095 127.69 326.87 126.028 326.167 124.532C325.888 123.916 325.791 123.15 324.946 122.965C324.634 123.609 325.095 124.073 325.197 124.566C325.302 125.018 325.825 125.509 325.286 125.879C324.792 126.211 324.183 125.754 323.793 125.422L323.653 125.346C323.24 125.034 322.068 125.428 323.075 126.364C323.862 127.406 325.499 127.434 325.982 128.805C325.936 129.306 326.133 129.682 326.625 129.812C327.194 130.034 327.466 130.502 327.734 131.011L327.73 131.052Z" fill="#007A50"/>
<path d="M326.047 105.149L324.536 106.71C323.269 107.452 323.661 108.899 323.12 109.962C322.826 111.323 322.718 112.722 322.034 113.982C321.717 115.362 321.169 116.74 322.228 118.249C320.7 118.168 319.715 117.444 318.723 116.804C317.947 116.331 318.441 115.767 318.68 115.222C319.121 114.317 319.415 113.419 318.093 112.937C317.789 112.803 317.284 113.723 317.043 112.691C316.851 111.81 316.282 112.051 315.754 112.527C314.414 113.831 314.553 114.37 315.753 115.724C317.221 117.356 318.686 118.798 320.857 119.424C321.596 119.62 322.308 119.877 323.093 119.803C324.124 120.258 325.348 120.206 326.143 121.164C326.853 120.537 326.179 119.863 326.381 119.272C326.54 119.14 326.711 119.114 326.893 119.195C327.464 119.838 328.029 120.101 328.44 119.067L329.001 118.679C329.901 118.048 329.534 117.698 328.696 117.43C327.438 117.164 326.15 116.769 324.83 117.17C324.269 117.327 323.655 117.143 323.504 116.498C323.388 115.709 324.074 115.794 324.536 115.796C325.78 115.766 326.759 114.954 327.924 114.644C328.197 114.417 328.266 114.129 328.19 113.806C327.438 112.852 326.639 111.935 325.434 111.548C324.491 111.291 324.42 110.695 324.641 109.896C324.965 108.896 325.364 107.987 326.033 107.124C326.462 106.576 326.975 106.035 326.65 105.227C326.48 105.021 326.279 104.918 326.066 105.171L326.047 105.149ZM362.291 125.503C360.438 122.573 358.301 119.763 358.629 115.987C358.737 113.855 358.567 111.718 358.124 109.629C357.871 108.132 357.319 106.7 356.502 105.42C355.684 104.139 354.618 103.036 353.367 102.175C352.833 101.81 352.101 101.53 352.573 100.523C353.125 99.3342 353.07 98.1091 351.797 97.3159C350.563 96.5683 349.456 96.4848 348.309 97.5123C347.975 97.9435 346.541 98.6704 346.259 99.2118C346.225 99.3558 347.883 98.713 348.137 98.6949C348.622 98.6777 349.066 98.4251 349.517 98.3205C350.264 98.2017 351.019 98.2309 351.325 99.017C351.615 99.7385 351.209 100.268 350.549 100.584L350.48 100.641C349.88 101.215 348.447 101.48 349.825 102.724C350.007 102.805 350.268 102.935 350.424 102.844C352.108 101.909 353.123 102.994 354.201 104.063C356.06 105.874 357.196 108.3 357.398 110.885C357.545 112.724 357.599 114.568 357.559 116.411C357.697 120.379 360.84 125.05 362.977 128.092C363.219 128.43 363.451 127.737 363.225 127L362.295 125.461L362.291 125.503Z" fill="#007A50"/>
<path d="M348.381 97.6452C346.688 99.3573 344.464 98.3901 342.477 98.7283C341.408 98.9218 340.278 98.8572 339.216 98.9673C338.534 99.0711 338.238 98.8539 337.982 98.2197C337.362 96.7309 335.752 96.4106 335.052 97.8379C334.063 99.8899 332.185 100.407 330.52 101.364C328.808 102.359 327.369 103.591 326.158 105.096L326.662 105.333C327.473 105.43 327.864 104.836 328.286 104.371C330.093 102.565 332.15 101.476 334.762 101.197C337.522 100.911 340.201 99.9226 343.01 100.02C344.101 100.039 345.121 99.9245 346.019 100.682C346.488 101.063 346.935 101 347.33 100.596C347.752 99.8995 348.417 99.3102 348.414 98.4266C347.171 98.225 348.908 97.8632 348.381 97.6452ZM362.098 125.316C361.574 125.982 362.24 126.508 362.289 127.122L362.585 126.877C363.068 128.016 363.551 129.155 363.796 130.377C363.99 134.644 363.116 138.411 359.343 140.999C359.1 141.124 358.219 142.008 358.109 142.292C358.36 143.893 359.458 142.945 359.969 142.867C360.311 142.584 360.782 142.271 360.994 142.018C361.621 141.151 364.298 141.32 364.22 140.114C364.942 139.13 364.216 138.115 364.399 137.27C364.8 135.667 364.965 133.874 364.68 132.186C363.924 130.579 364.987 130.006 366.189 129.51C367.074 129.046 367.026 128.2 366.731 127.52C366.474 126.886 365.501 126.5 365.083 126.692C363.292 127.637 362.547 126.6 361.848 125.293" fill="#007A50"/>
<path d="M327.431 119.519C327.094 119.298 327.144 118.756 326.666 118.69C326.393 118.916 326.567 119.311 326.452 119.637C326.123 119.332 325.999 118.858 325.567 118.754C325.164 119.473 325.83 119.999 325.874 120.886C325.176 119.117 323.655 119.646 322.631 119.802C323.362 120.081 323.949 120.557 323.955 121.399C323.938 122.491 324.304 123.536 324.564 124.591C324.658 124.936 325.04 125.351 324.737 125.68C324.319 126.103 323.983 125.419 323.577 125.486C323.887 126.231 324.557 126.715 325.221 126.357C325.779 126.01 325.472 125.455 325.356 124.897C325.273 124.426 325.92 127.664 327.441 129.406C327.784 128.66 327.425 127.995 327.172 127.319C326.386 125.352 325.894 122.718 325.317 120.539C326.138 121.9 326.751 122.547 328.387 121.46L328.729 120.714C328.977 119.854 328.519 119.348 327.758 118.709C327.345 118.859 327.662 119.288 327.431 119.519Z" fill="#007A50"/>
<path d="M324.537 106.71C324.078 106.898 323.38 107.168 322.936 107.189C319.243 107.325 316.522 109.003 315.481 112.754C315.861 112.747 316.393 111.998 316.486 112.806C316.527 113.273 316.01 113.855 316.723 114.112C317.477 114.372 317.285 113.26 317.843 113.145C317.9 112.982 317.941 112.986 317.87 112.853C317.002 112.455 317.349 111.436 317.865 110.854C318.894 109.753 320.213 108.966 321.671 108.584C323.097 108.172 322.435 109.877 323.212 110.118C324.123 109.131 323.671 107.658 324.537 106.71Z" fill="#007A50"/>
<path d="M360.084 142.773C359.731 142.488 359.119 143.65 358.905 142.557C358.53 142.29 358.162 142.402 357.813 142.538C356.238 143.42 354.543 144.017 352.783 144.398C351.293 144.825 349.694 144.379 348.214 144.913C348.278 145.36 348.82 145.643 348.686 146.177C352.765 146.383 356.789 145.181 360.084 142.773Z" fill="#007A50"/>
<path d="M363.094 140.239C362.88 141.418 361.247 140.885 360.976 141.995C361.781 141.482 362.603 141.455 363.6 141.822C364.532 142.205 365.691 142.399 366.25 141.358C366.764 140.354 365.958 139.521 365.151 138.919C364.541 138.462 364.531 137.893 364.377 137.289C364.011 138.054 364.374 139.14 363.523 139.691C363.777 139.904 364.175 139.921 364.394 140.278C363.969 140.553 363.541 140.408 363.075 140.216L363.094 140.239ZM326.266 129.61L326.442 128.617C326.041 127.948 324.623 128.046 324.093 127.638C323.559 127.272 323.078 127.017 323.129 126.243C322.428 125.862 322.671 125.506 323.301 125.292C321.899 125.223 321.367 125.74 321.71 127.035C322.351 129.199 324.56 129.87 326.641 129.877L326.266 129.61Z" fill="#007A50"/>
<path d="M366.152 129.464C363.933 130.032 364.154 131.504 364.699 132.208C364.372 130.747 365.18 129.961 366.266 129.369L366.152 129.464Z" fill="#007A50"/>
<path d="M325.288 120.41C325.374 123.574 326.719 126.309 327.654 129.152C329.235 131.615 330.789 134.139 332.457 136.568C333.958 138.75 335.597 140.819 337.766 142.37C338.338 142.781 338.834 143.333 339.615 143.301L339.649 143.157L339.6 143.006C341.248 143.506 343.026 143.333 344.544 142.526C345.554 142.074 346.63 142.26 347.705 143.14C349.716 144.823 351.505 144.931 354.187 144.004C355.381 143.591 356.508 143.004 357.582 142.537C362.035 140.77 363.422 136.694 363.475 132.261C363.535 130.016 362.044 128.403 361.023 126.708C359.568 124.257 358.18 121.749 356.876 119.25C356.521 118.543 356.701 117.74 356.668 116.958C356.564 115.35 355.645 114.38 354.231 114.436C352.608 114.472 351.704 115.375 351.66 116.99C351.58 118.748 351.891 120.501 352.573 122.124C353.098 123.268 352.891 124.826 353.863 125.906C354.454 126.572 355.052 127.154 355.551 127.895C356.205 128.777 356.042 129.183 355.002 129.736C353.298 130.648 351.601 130.131 349.846 130.007C349.624 129.99 349.414 129.903 349.246 129.759C349.078 129.614 348.96 129.42 348.911 129.203C348.492 127.586 347.292 126.464 346.339 125.175C345.726 124.296 345.391 123.381 345.726 122.256C346.031 121.233 345.634 120.291 345.124 119.444C344.561 118.486 343.674 118.297 342.691 118.688C342.054 118.986 341.689 119.519 342.264 120.12C343.123 121.064 343.198 121.849 342.041 122.539C341.175 123.025 339.41 122.564 339.203 121.619C338.532 118.864 335.729 119.609 334.185 118.348C334.026 118.249 334.174 118.242 334.037 118.355C332.716 119.45 330.859 118.833 329.493 119.735C328.924 119.976 328.923 120.67 328.467 121.047C327.321 121.612 326.13 122.215 325.288 120.41Z" fill="white"/>
<path d="M331.911 120.194C332.214 120.328 332.619 120.261 332.798 119.92C333.65 118.444 334.543 119.244 335.479 119.816C335.895 120.087 336.38 120.532 336.763 120.484C338.23 120.307 338.316 120.967 338.534 122.25C338.707 123.339 340.249 123.716 341.371 123.632C342.471 123.568 343.298 122.805 343.494 121.603C343.551 121.209 343.328 120.893 343.018 120.612C342.707 120.33 341.971 119.998 342.443 119.548C343.066 118.955 344.006 119.022 344.536 119.661C345.084 120.323 345.682 121.368 345.32 122.091C344.4 124.087 345.474 125.429 346.579 126.669C347.468 127.646 348.13 128.807 348.515 130.07C348.707 130.719 349.025 130.917 349.825 130.909C351.675 130.915 353.543 131.407 355.413 130.511C356.582 129.927 356.864 129.155 356.058 128.09C355.226 127.086 354.253 126.237 353.606 125.04C353.247 124.375 352.854 123.854 353.261 123.093C353.44 122.753 353.52 122.34 353.149 122.031C351.328 120.345 352.162 118.152 352.218 116.18C352.235 115.319 353.645 115.074 354.566 115.119C355.507 115.187 356.396 115.796 356.239 116.812C355.875 119.617 357.57 121.523 358.689 123.753C359.577 125.52 360.487 127.267 361.675 128.747C363.76 131.446 363.016 134.489 362.303 136.967C361.796 138.812 360.565 140.294 359.017 141.116C356.937 142.223 354.388 143.413 352.503 144.013C350.618 144.613 348.943 144.308 347.383 142.751C346.263 141.678 344.965 142.292 344.006 142.664C343.112 143.036 342.151 143.219 341.182 143.2C340.214 143.181 339.259 142.961 338.38 142.553L339.439 143.831C340.325 144.714 341.565 144.726 342.652 145.018C343.391 145.214 343.608 144.688 343.882 144.23C344.163 143.688 344.414 143.018 345.111 143.904C345.845 144.373 346.523 145.005 347.501 144.656C347.881 144.649 348.024 144.915 348.141 145.242C349.619 145.634 351.117 145.586 352.554 145.049C354.47 144.577 356.233 143.924 357.975 143.057L358.885 142.765C363.26 140.254 364.366 136.257 363.998 131.595C363.623 129.288 363.578 128.863 362.928 127.708L362.27 126.868C360.893 124.929 359.861 123.359 359.037 121.578C358.402 120.256 357.84 118.835 357.604 117.067C357.546 115.19 357.121 113.425 356.786 111.816C356.063 108.719 355.431 105.546 352.527 103.526C351.815 103.038 351.152 102.702 350.264 103.207C349.642 103.569 349.665 103.319 349.969 102.759C348.276 101.505 350.089 101.235 350.089 101.235C349.752 101.014 349.372 101.251 349.039 100.988C348.702 100.767 348.51 100.349 348.123 100.208C347.737 100.066 347.384 100.243 347.039 100.337C346.731 100.476 346.336 101.112 346.113 100.565C345.577 99.084 344.303 99.6788 343.461 99.6834C339.401 99.6997 335.453 100.778 331.505 101.625C329.791 101.968 328.723 103.508 327.443 104.607C327.056 104.928 326.73 105.276 326.361 105.62C325.536 107.267 324.071 108.558 323.908 110.541C323.808 111.394 323.538 112.042 324.8 112.035C326.082 112.051 326.629 113.406 327.679 113.884C328.443 114.482 329.132 115.22 330.087 115.584C330.482 115.411 330.516 115.035 330.35 114.788C329.824 113.876 330.012 112.99 330.222 112.084C330.569 108.099 333.205 105.067 336.64 105.223C340.98 105.36 344.01 107.16 344.409 111.488C344.549 112.693 344.3 113.91 343.7 114.962C343.099 116.014 342.178 116.846 341.071 117.336C339.687 117.976 338.167 118.27 336.643 118.192C335.119 118.114 333.636 117.667 332.322 116.889C331.579 116.734 331.278 115.444 330.234 116.039C329.926 116.641 330.118 117.29 329.954 117.927C330.082 118.822 328.542 119.329 329.306 120.39C330.175 120.093 331.005 119.751 331.911 120.194Z" fill="white"/>
<path d="M345.077 143.817C344.567 145.01 344.08 145.953 344.294 147.277C344.347 147.618 344.263 148.073 344.736 148.181C345.146 148.304 345.654 148.036 345.833 147.696C346.46 146.598 346.829 145.791 347.437 144.671C346.491 143.993 345.676 143.705 345.077 143.817ZM323.861 128.331C324.406 128.804 325.206 128.564 326.025 128.578C326.344 128.082 326.005 127.209 325.573 127.105C324.481 126.855 324.064 126.815 323.178 126.395C322.164 127.582 323.372 127.928 323.861 128.331Z" fill="white"/>
<path d="M323.284 110.02C323.06 109.705 323.277 109.41 323.368 109.103C323.628 108.118 323.158 107.737 322.252 107.988C320.393 108.527 318.697 109.356 317.501 110.926C316.927 111.671 316.668 112.424 317.945 112.713C318.908 112.993 318.895 114.044 319.515 114.607C321.249 116.096 321.484 116.055 322.148 113.888C323.135 112.762 322.933 111.312 323.284 110.02Z" fill="white"/>
<path d="M327.671 114.43C327.447 114.32 327.193 114.286 326.949 114.335C326.704 114.385 326.484 114.514 326.321 114.703C325.759 115.323 325.088 115.301 324.39 115.341C323.711 115.403 322.624 114.879 322.732 116.215C322.787 117.208 323.624 117.939 324.538 117.605C325.93 117.106 327.185 117.413 328.5 117.516C329.786 117.028 330.014 116.376 329.25 115.316C328.834 114.814 328.418 114.312 327.671 114.43Z" fill="white"/>
<path d="M322.053 114.237C321.396 114.511 321.699 115.108 321.05 115.53C320.24 114.738 319.107 114.253 318.608 113.049C318.431 112.696 318.139 112.668 317.771 112.781L317.999 112.592C319.192 113.335 318.671 114.191 318.041 114.867C317.528 115.408 317.247 115.718 318.015 116.506C319.075 117.552 320.242 118.125 321.659 118.49C322.588 118.683 323.074 118.203 322.695 117.747C321.458 116.347 322.074 114.912 322.141 113.509" fill="white"/>
<path d="M327.489 114.35C329.545 115.996 329.938 116.285 328.697 117.43C329.606 117.831 328.889 118.31 328.449 118.521C329.49 119.314 329.829 118.378 330.232 117.659C330.745 117.119 330.45 116.67 330.272 116.085C330.14 115.694 330.216 115.554 330.016 115.451C329.49 114.539 328.486 114.024 327.478 113.781C327.554 114.104 327.925 114.181 327.648 114.449L327.489 114.35Z" fill="#007A50"/>
<path d="M330.383 117.611C329.776 117.806 329.415 118.76 328.551 118.321L328.05 118.505C328.117 119.374 328.958 120.063 328.554 121.014C329.131 120.921 329.207 120.318 329.553 119.993" fill="white"/>
<path d="M325.479 114.245C325.949 114.163 326.352 113.907 326.102 113.42C325.747 112.714 325.08 112.651 324.405 112.902C323.908 113.045 323.267 113.384 323.569 113.98C323.992 114.862 324.831 114.205 325.479 114.245Z" fill="white"/>
<path d="M325.905 118.744L325.954 118.896C326.378 119.546 326.246 120.963 327.354 120.584C328.181 120.284 327.026 119.354 327.046 118.683C326.652 118.394 326.273 118.4 325.905 118.744Z" fill="white"/>
<path d="M347.381 102.094C348.019 103.836 348.629 104.062 350.389 103.219C350.829 103.008 351.303 102.885 351.61 103.208C352.643 104.315 354.17 104.859 354.751 106.533C355.656 109.248 356.592 111.86 356.36 114.825C356.329 115.159 356.259 116.372 357.571 116.286C357.828 114.417 357.501 112.724 357.397 110.885C357.217 107.376 355.171 104.722 352.645 102.696C351.491 101.767 350.556 102.772 349.525 102.78C348.505 103.357 348.447 101.248 347.381 102.094ZM350.241 101.186C351.53 100.887 352.426 100.067 351.935 98.7797C351.403 97.4885 350.189 97.6473 349.04 98.2539L348.402 98.5513C347.871 99.069 347.419 99.6363 347.164 100.348C347.497 100.611 347.872 100.415 348.218 100.322C348.877 100.468 349.31 99.8779 350.167 99.7065C349.605 100.326 348.96 100.707 348.94 101.378C349.379 101.63 349.789 101.29 350.218 101.205L350.241 101.186ZM337.048 98.5308C337.128 98.3491 337 98.1476 336.746 98.1657C336.006 98.2011 335.664 98.7156 335.303 99.4387C336.167 99.4152 336.755 99.1973 337.048 98.5308Z" fill="white"/>
<path d="M364 128.398C364.371 129.17 364.837 129.129 365.357 128.968C365.876 128.807 366.298 128.573 366.086 127.901C365.811 127.013 365.283 127.489 364.874 127.598C364.441 127.725 363.85 127.753 364 128.398Z" fill="white"/>
<path d="M362.977 140.144C363.128 140.326 363.207 140.607 363.393 140.646C363.645 140.777 363.926 140.842 364.209 140.836C364.493 140.829 364.77 140.752 365.016 140.61C365.262 140.444 365.085 140.09 364.937 139.866C364.536 139.197 364.021 139.317 363.471 139.58L362.977 140.144Z" fill="white"/>
<path d="M358.188 142.805L352.764 144.606C354.693 144.458 356.555 143.84 358.188 142.805Z" fill="white"/>
<path d="M332.117 117.059C333.454 117.93 334.991 118.444 336.582 118.554C338.173 118.664 339.765 118.365 341.207 117.686C345.497 115.862 346.3 109.228 342.294 106.389C337.795 103.187 332.414 104.299 330.055 109.797C329.82 110.49 329.773 111.233 329.919 111.951C329.662 113.357 330.387 115.066 332.117 117.059Z" fill="#007A50"/>
<path d="M349.352 128.067C348.957 128.934 349.745 129.282 350.23 129.496C351.555 130.168 352.992 130.325 354.418 129.681C355.405 129.248 355.588 128.172 354.68 127.539C353.589 126.826 352.377 126.291 351.195 125.654C349.996 126.108 350.598 126.649 351.124 127.098C351.666 127.612 352.545 127.653 353.063 128.417C351.709 128.962 350.612 127.639 349.334 128.044" fill="#007A50"/>
<path d="M349.379 128.007C350.607 128.375 351.41 128.788 352.714 128.784C353.116 128.759 353.533 128.799 353.621 128.302C353.659 127.885 353.318 127.706 353.038 127.553C352.341 127.13 351.099 126.466 350.693 126.301C350.516 126.179 350.493 126.198 350.333 126.33C350.151 126.481 349.824 127.06 349.379 128.007Z" fill="white"/>
<path d="M348.959 101.402L349.688 100.798C350.197 100.299 351.46 100.06 350.828 99.1595C350.382 98.5284 349.297 99.12 348.629 99.5197C348.401 99.7085 348.234 99.9241 348.067 100.14C348.142 100.694 348.551 101.048 348.959 101.402Z" fill="#007A50"/>
<path d="M332.117 117.059C330.809 115.665 330.031 113.857 329.919 111.951C329.132 113.18 330.017 114.295 330.016 115.451L330.253 116.063C331.228 115.755 331.268 117.147 332.117 117.059Z" fill="white"/>
<path d="M331.282 113.362C332.753 117.455 336.214 118.014 340.344 117.015C343.359 116.248 344.802 112.472 343.639 109.355C342.677 106.803 337.903 104.754 335.184 105.738C332.096 106.835 330.244 110.488 331.282 113.362Z" fill="white"/>
<path d="M333.118 111.915C333.522 112.774 334.185 113.573 335.501 113.213C336.752 112.869 337.414 111.627 336.999 110.431C336.61 109.406 335.023 108.604 334.082 108.999C333.164 109.375 332.669 110.632 333.118 111.915Z" fill="#007A50"/>
<path d="M332.288 350.753C332.386 350.442 332.451 350.24 332.451 350.24C332.451 350.24 334.03 343.695 333.688 341.414C333.635 341.053 334.309 339.929 335.504 338.345C335.587 338.944 335.93 341.503 335.896 342.269C335.858 343.135 335.826 343.375 335.826 343.375C335.826 343.375 336.53 339.761 336.256 337.375C336.808 336.678 337.438 335.916 338.13 335.108C338.247 335.981 338.517 338.091 338.489 338.773C338.482 338.913 338.476 339.032 338.47 339.14C338.504 339.087 338.537 339.034 338.571 338.981C338.746 337.844 338.997 335.843 338.881 334.244C343.398 327.225 352.448 319.058 359.354 316.57L326.226 303.218C324.006 302.323 321.453 303.419 320.553 305.652L305.741 342.4C304.841 344.633 305.921 347.193 308.141 348.088L329.96 356.882C330.575 354.903 331.376 352.762 332.288 350.753Z" fill="#007A50"/>
<mask id="mask0_7_90" style="mask-type:luminance" maskUnits="userSpaceOnUse" x="307" y="304" width="51" height="41">
<path d="M335.504 338.345C335.587 338.944 335.93 341.503 335.896 342.269C335.858 343.135 335.826 343.375 335.826 343.375C335.826 343.375 336.53 339.761 336.256 337.375C336.808 336.678 337.438 335.916 338.13 335.108C338.237 335.907 338.472 337.737 338.489 338.566C338.554 338.437 338.619 338.308 338.684 338.181C338.834 337.037 338.973 335.516 338.881 334.244C343.04 327.782 351.04 320.35 357.673 317.27L325.749 304.403C324.172 303.767 322.37 304.54 321.73 306.126L307.999 340.194C316.354 340.317 326.101 341.279 333.56 344.412C333.717 343.22 333.793 342.115 333.688 341.414C333.635 341.053 334.309 339.929 335.504 338.345Z" fill="white"/>
</mask>
<g mask="url(#mask0_7_90)">
<path d="M335.504 338.345C335.587 338.944 335.93 341.503 335.896 342.269C335.858 343.135 335.826 343.375 335.826 343.375C335.826 343.375 336.53 339.761 336.256 337.375C336.808 336.678 337.438 335.916 338.13 335.108C338.237 335.907 338.472 337.737 338.489 338.566C338.554 338.437 338.619 338.308 338.684 338.181C338.834 337.037 338.973 335.516 338.881 334.244C343.04 327.782 351.04 320.35 357.673 317.27L325.749 304.403C324.172 303.767 322.37 304.54 321.73 306.126L307.999 340.194C316.354 340.317 326.101 341.279 333.56 344.412C333.717 343.22 333.793 342.115 333.688 341.414C333.635 341.053 334.309 339.929 335.504 338.345Z" fill="white"/>
</g>
<path d="M367.565 318.482C366.117 315.532 363.04 315.243 359.354 316.57C358.806 316.768 358.244 317.005 357.673 317.27C351.04 320.35 343.04 327.782 338.881 334.244C338.973 335.516 338.834 337.037 338.684 338.181C338.646 338.474 338.607 338.749 338.571 338.981C338.486 339.531 338.418 339.882 338.418 339.882C338.418 339.882 338.44 339.707 338.47 339.14C338.476 339.032 338.482 338.913 338.489 338.773C338.491 338.715 338.49 338.643 338.489 338.566C338.472 337.737 338.237 335.907 338.13 335.108C337.438 335.916 336.808 336.678 336.256 337.375C336.53 339.761 335.826 343.375 335.826 343.375C335.826 343.375 335.858 343.135 335.896 342.269C335.93 341.503 335.587 338.944 335.504 338.345C334.309 339.929 333.635 341.053 333.688 341.414C333.793 342.115 333.717 343.22 333.56 344.412C333.208 347.1 332.451 350.24 332.451 350.24C332.451 350.24 332.386 350.442 332.288 350.753C331.376 352.762 330.575 354.903 329.96 356.882C329.146 359.502 328.661 361.838 328.691 363.205L329.106 363.156C329.297 360.563 330.212 357.433 331.742 354.014C334.078 348.788 337.871 342.878 342.802 337.112C350.65 328.572 359.163 322.613 365.53 320.694C359.539 322.911 348.405 333.415 344.703 337.474C340.558 342.02 337.125 346.471 334.337 350.937C337.62 347.02 343.141 346.993 343.141 346.993C343.141 346.993 346.629 345.046 351.007 342.02C349.229 341.737 346.299 341.299 345.251 341.317C343.706 341.342 343.274 341.389 343.274 341.389C343.274 341.389 348.607 340.493 352.754 340.785C361.024 334.824 371.1 325.682 367.565 318.482Z" fill="#007A50"/>
<path d="M243 134H373.667L407.64 169.933V228.733L390 247.353L414.173 272.507V343.067L380.2 379H243L265.867 352.867L265.867 160.133L243 134ZM295.92 262.707V350.907H367.133L386.08 331.633V283.94L365.5 262.707H295.92ZM295.92 162.093V236.573H360.6L379.547 217.3V181.367L360.927 162.093H295.92Z" fill="#007A50"/>
<path d="M96 301.907H123.113V330.653L142.713 350.907H195.96L214.58 331.96V275.447H128.993L96 240.82V169.933L129.973 134H209.027L243 169.933V343.067L209.027 379H129.973L96 343.067V301.907ZM214.58 249.313V181.04L195.96 162.093H142.713L126.053 179.407V231.347L143.693 249.313H214.58Z" fill="#007A50"/>
</svg>
