<svg width="512" height="512" viewBox="0 0 512 512" fill="none" xmlns="http://www.w3.org/2000/svg">
<rect width="512" height="512" fill="#007A50"/>
<path d="M243 134H373.667L407.64 169.933V228.733L390 247.353L414.173 272.507V343.067L380.2 379H243L265.867 352.867L265.867 160.133L243 134ZM295.92 262.707V350.907H367.133L386.08 331.633V283.94L365.5 262.707H295.92ZM295.92 162.093V236.573H360.6L379.547 217.3V181.367L360.927 162.093H295.92Z" fill="white"/>
<path d="M96 301.907H123.113V330.653L142.713 350.907H195.96L214.58 331.96V275.447H128.993L96 240.82V169.933L129.973 134H209.027L243 169.933V343.067L209.027 379H129.973L96 343.067V301.907ZM214.58 249.313V181.04L195.96 162.093H142.713L126.053 179.407V231.347L143.693 249.313H214.58Z" fill="white"/>
</svg>
